{"title":"Insight 2011 DVDRip XViD-DTRG","uid":7060825,"size":1444843888,"categoryP":"video","categoryS":"movies","magnet":"?xt=urn:btih:9cc5cfab7a530e39453f832903f5560cdd13effa&amp;dn=Insight+2011+DVDRip+XViD-DTRG&amp;tr=udp%3A%2F%2Ftracker.openbittorrent.com%3A80&amp;tr=udp%3A%2F%2Fopen.demonii.com%3A1337&amp;tr=udp%3A%2F%2Ftracker.coppersurfer.tk%3A6969&amp;tr=udp%3A%2F%2Fexodus.desync.com%3A6969","seeders":0,"leechers":1,"uploader":"MScope40","files":3,"time":1330342544,"description":"Insight 2011 DVDRip XViD-DTRG\n\nFormat : AVI\nFormat/Info : Audio Video Interleave\nFile size : 1.33 GiB\nDuration : 1h 31mn\nOverall bit rate : 2 071 Kbps\nWriting library : VirtualDub build 32842/release\n\nVideo\nID : 0\nFormat : MPEG-4 Visual\nFormat profile : Advanced Simple@L5\nFormat settings, BVOP : 2\nFormat settings, QPel : No\nFormat settings, GMC : No warppoints\nFormat settings, Matrix : Default (H.263)\nMuxing mode : Packed bitstream\nCodec ID : XVID\nCodec ID/Hint : XviD\nDuration : 1h 31mn\nBit rate : 1 611 Kbps\nWidth : 720 pixels\nHeight : 400 pixels\nDisplay aspect ratio : 16:9\nFrame rate : 29.970 fps\nColor space : YUV\nChroma subsampling : 4:2:0\nBit depth : 8 bits\nScan type : Progressive\nCompression mode : Lossy\nBits/(Pixel*Frame) : 0.187\nStream size : 1.03 GiB (78%)\nWriting library : XviD 64\n\nAudio\nID : 1\nFormat : AC-3\nFormat/Info : Audio Coding 3\nMode extension : CM (complete main)\nCodec ID : 2000\nDuration : 1h 31mn\nBit rate mode : Constant\nBit rate : 448 Kbps\nChannel(s) : 6 channels\nChannel positions : Front: L C R, Side: L R, LFE\nSampling rate : 48.0 KHz\nBit depth : 16 bits\nCompression mode : Lossy\nStream size : 294 MiB (22%)\nAlignment : Aligned on interleaves\nInterleave, duration : 33 ms (1.00 video frame)\nInterleave, preload duration : 512 ms\n\n &lt;a href=&quot;\nhttp://www.imdb.com/title/tt1687277/&quot; rel=&quot;nofollow&quot; target=&quot;_NEW&quot;&gt;\nhttp://www.imdb.com/title/tt1687277/&lt;/a&gt;\n\n\nStoryline\n\nKaitlyn, an ER nurse who is tending to a young stabbing victim, is accidentally electrocuted by the defibrillator that is used in an effort to save the woman's life. Almost immediately Kaitlyn starts to experience the victim's memories. She turns to family, friends, and the police, but no one takes her seriously. She decides that she must take it upon herself to try to solve the crime - or risk the terrifying visions ending in her own sanity being at stake. Ultimately Kaitlyn teams up with the detective on the case and weaves her way through the victim's past - to discover not only the brutal truth, but also some very unexpected lessons about life, love, sorrow and forgiveness along the way\n\n\nSource Used\n\n\nInsight 2011 NTSC DVDR-ToF...Thanks\n\n\nEnjoy\n\nGreets\n\n\nEMBER,ETRG,BHRG,GooN,HOPE,CreWSaDe,RemixHD,LEGiTiMATE,INSPiRAL,LEGiON,XtremeEncode .......and maybe many more\n &lt;a href=&quot;\nhttp://i.imgur.com/zZpnf.png&quot; rel=&quot;nofollow&quot; target=&quot;_NEW&quot;&gt;\nhttp://i.imgur.com/zZpnf.png&lt;/a&gt;\n &lt;a href=&quot;\nhttp://i.imgur.com/EqzvR.png&quot; rel=&quot;nofollow&quot; target=&quot;_NEW&quot;&gt;\nhttp://i.imgur.com/EqzvR.png&lt;/a&gt;\n &lt;a href=&quot;\nhttp://i.imgur.com/eU9mG.png&quot; rel=&quot;nofollow&quot; target=&quot;_NEW&quot;&gt;\nhttp://i.imgur.com/eU9mG.png&lt;/a&gt;","torrent":{"xt":"urn:btih:9cc5cfab7a530e39453f832903f5560cdd13effa","amp;dn":"Insight+2011+DVDRip+XViD-DTRG","amp;tr":["udp%3A%2F%2Ftracker.openbittorrent.com%3A80","udp%3A%2F%2Fopen.demonii.com%3A1337","udp%3A%2F%2Ftracker.coppersurfer.tk%3A6969","udp%3A%2F%2Fexodus.desync.com%3A6969"],"infoHash":"9cc5cfab7a530e39453f832903f5560cdd13effa","infoHashBuffer":{"type":"Buffer","data":[156,197,207,171,122,83,14,57,69,63,131,41,3,245,86,12,221,19,239,250]},"announce":[],"urlList":[]}}